<?xml version="1.0" standalone="no"?>
<!DOCTYPE svg PUBLIC "-//W3C//DTD SVG 20010904//EN"
 "http://www.w3.org/TR/2001/REC-SVG-20010904/DTD/svg10.dtd">
<svg version="1.0" xmlns="http://www.w3.org/2000/svg"
 width="1000.000000pt" height="1000.000000pt" viewBox="0 0 1000.000000 1000.000000"
 preserveAspectRatio="xMidYMid meet">

<g transform="translate(0.000000,1000.000000) scale(0.100000,-0.100000)"
fill="#000000" stroke="none">
<path d="M3515 9083 c-887 -26 -1452 -233 -1906 -699 -285 -294 -456 -641
-548 -1114 -71 -362 -76 -515 -76 -2145 0 -1453 4 -1611 41 -1905 62 -493 230
-916 491 -1240 84 -103 282 -293 380 -363 350 -249 771 -382 1358 -429 231
-19 3165 -19 3380 0 520 45 910 160 1244 366 468 291 760 693 905 1247 79 301
102 522 117 1124 12 476 6 1972 -11 2630 -11 449 -36 645 -120 936 -149 522
-478 974 -893 1228 -372 227 -792 333 -1437 361 -192 8 -2661 11 -2925 3z
m2805 -711 c177 -11 496 -43 625 -63 223 -34 437 -116 617 -235 248 -165 479
-523 542 -841 95 -472 100 -594 93 -2233 -5 -1349 -2 -1270 -57 -1743 -38
-321 -104 -518 -248 -737 -174 -264 -531 -493 -869 -555 -48 -9 -106 -20 -129
-25 -253 -57 -513 -65 -1984 -65 -1256 0 -1279 0 -1505 23 -505 50 -645 77
-832 157 -309 132 -508 321 -666 633 -67 133 -76 159 -131 407 -84 378 -90
521 -83 2160 5 1352 2 1275 52 1720 38 332 112 557 255 771 105 156 299 319
513 428 235 119 529 175 1097 205 219 12 2496 6 2710 -7z"/>
<path d="M6940 7724 c-170 -46 -335 -230 -360 -402 -19 -136 32 -281 136 -387
113 -115 226 -161 371 -152 116 7 210 53 303 147 154 156 188 352 92 534 -42
80 -137 179 -209 219 -102 55 -224 70 -333 41z"/>
<path d="M4751 7160 c-631 -52 -1148 -356 -1517 -891 -74 -107 -169 -289 -219
-417 -127 -330 -159 -762 -84 -1150 113 -585 519 -1110 1079 -1396 466 -238
1060 -280 1576 -111 635 208 1159 779 1319 1438 81 333 72 759 -25 1092 -85
297 -249 575 -485 822 -288 304 -597 483 -976 567 -202 44 -468 62 -668 46z
m399 -715 c277 -45 512 -166 715 -370 240 -239 371 -530 391 -871 23 -378
-111 -721 -390 -999 -211 -211 -444 -330 -729 -375 -102 -16 -347 -13 -452 5
-288 50 -532 187 -753 420 -281 296 -391 693 -316 1131 77 451 433 860 879
1010 182 61 453 81 655 49z"/>
</g>
</svg>
