<?xml version="1.0" standalone="no"?>
<!DOCTYPE svg PUBLIC "-//W3C//DTD SVG 20010904//EN"
 "http://www.w3.org/TR/2001/REC-SVG-20010904/DTD/svg10.dtd">
<svg version="1.0" xmlns="http://www.w3.org/2000/svg"
 width="640.000000pt" height="640.000000pt" viewBox="0 0 640.000000 640.000000"
 preserveAspectRatio="xMidYMid meet">

<g transform="translate(0.000000,640.000000) scale(0.100000,-0.100000)"
fill="#000000" stroke="none">
<path d="M2990 5880 c-25 -5 -69 -9 -98 -9 -29 -1 -72 -5 -95 -10 -23 -5 -82
-17 -132 -26 -49 -9 -103 -20 -120 -25 -16 -5 -70 -21 -120 -35 -216 -64 -520
-203 -658 -301 -26 -19 -49 -34 -52 -34 -10 0 -112 -76 -210 -156 -197 -161
-367 -346 -533 -580 -8 -12 -16 -24 -78 -124 -39 -64 -150 -283 -174 -345 -4
-11 -15 -36 -24 -56 -13 -30 -50 -141 -85 -254 -14 -43 -58 -257 -70 -340 -31
-209 -36 -416 -16 -650 19 -213 89 -519 156 -682 11 -27 25 -64 38 -95 19 -48
135 -284 156 -318 103 -162 151 -230 231 -330 133 -165 286 -317 449 -445 54
-43 246 -175 270 -186 11 -5 36 -19 55 -31 90 -54 302 -152 400 -184 25 -8 54
-19 65 -24 64 -27 275 -78 460 -112 98 -18 705 -18 795 0 36 7 90 18 120 23
52 10 75 15 168 38 88 23 237 72 333 112 112 46 313 146 359 179 15 11 31 20
34 20 15 0 220 150 321 235 154 130 276 258 395 415 36 47 68 87 71 90 7 6 93
140 122 190 78 135 169 333 217 470 7 19 16 44 20 55 8 19 32 103 50 175 19
75 35 157 62 310 18 102 18 596 0 705 -30 188 -83 416 -113 490 -4 11 -15 40
-23 65 -9 25 -22 61 -29 80 -8 19 -20 51 -27 70 -42 109 -236 457 -262 468 -5
2 -8 8 -8 13 0 5 -18 33 -41 62 -22 29 -53 68 -67 87 -57 74 -204 230 -288
306 -49 43 -91 82 -94 85 -16 18 -181 137 -275 198 -89 58 -302 170 -400 211
-11 4 -36 15 -56 24 -30 13 -162 57 -254 85 -99 30 -294 68 -420 82 -117 13
-473 19 -525 9z m424 -270 c226 -26 386 -60 556 -117 269 -91 518 -228 749
-413 107 -85 283 -258 342 -335 21 -27 59 -77 84 -110 25 -33 49 -65 54 -71
58 -71 206 -353 255 -484 15 -41 31 -84 36 -95 20 -47 70 -233 89 -335 55
-284 52 -684 -8 -945 -48 -209 -48 -210 -113 -385 -25 -66 -138 -299 -173
-355 -13 -22 -33 -56 -44 -75 -11 -19 -26 -44 -35 -55 -9 -11 -44 -58 -78
-104 -302 -406 -772 -728 -1263 -866 -245 -68 -390 -87 -665 -87 -219 0 -318
10 -525 52 -89 18 -248 66 -330 100 -11 4 -36 14 -55 22 -19 8 -51 21 -70 29
-61 23 -233 117 -327 177 -102 67 -159 109 -260 196 -129 112 -215 200 -311
321 -40 50 -77 95 -82 102 -23 28 -148 231 -161 260 -8 18 -17 33 -21 33 -5 0
-8 4 -8 9 0 5 -20 51 -44 102 -97 210 -145 368 -195 649 -88 494 22 1095 283
1554 145 254 373 523 586 692 41 32 77 62 80 65 7 9 196 131 255 164 108 62
237 121 345 160 41 15 84 30 95 35 11 5 29 11 40 13 11 3 54 14 95 25 119 31
261 57 375 70 116 13 343 14 449 2z"/>
<path d="M4315 4473 c-31 -4 -129 -31 -155 -43 -18 -9 -68 -30 -95 -40 -11 -4
-51 -20 -90 -35 -38 -15 -79 -30 -90 -35 -11 -4 -31 -12 -45 -18 -14 -5 -41
-16 -60 -22 -37 -14 -78 -30 -132 -54 -18 -8 -60 -24 -93 -36 -62 -22 -83 -30
-125 -48 -14 -6 -68 -27 -120 -47 -52 -21 -108 -43 -125 -50 -16 -7 -120 -47
-230 -90 -110 -42 -215 -84 -232 -91 -18 -8 -51 -21 -73 -29 -22 -8 -55 -21
-73 -29 -17 -8 -129 -51 -247 -97 -118 -45 -233 -90 -255 -99 -22 -10 -56 -23
-75 -30 -19 -7 -51 -20 -70 -28 -72 -29 -85 -35 -105 -42 -11 -4 -40 -15 -65
-25 -25 -10 -54 -21 -65 -25 -178 -66 -235 -124 -235 -236 0 -96 51 -162 165
-213 17 -7 38 -17 47 -22 10 -5 25 -9 33 -9 8 0 23 -4 33 -9 9 -5 55 -21 102
-36 47 -14 94 -30 105 -35 11 -5 58 -20 105 -35 47 -15 94 -30 105 -34 11 -5
31 -13 45 -19 27 -10 31 -21 96 -232 14 -47 34 -110 44 -140 10 -30 25 -82 35
-115 29 -103 34 -117 69 -223 53 -159 97 -202 206 -202 68 0 75 4 194 114 183
169 258 236 266 236 4 0 177 -132 240 -183 8 -7 71 -55 140 -107 69 -52 127
-97 130 -100 13 -14 78 -57 100 -67 101 -46 196 -34 291 38 34 27 89 121 89
155 0 9 4 33 10 53 5 20 16 74 25 121 9 47 23 119 32 160 8 41 19 98 24 125 5
28 13 70 18 95 5 25 17 83 26 130 9 47 21 103 25 125 8 39 24 120 40 200 4 22
15 81 25 130 9 50 21 110 27 135 5 25 13 65 18 90 5 25 12 59 15 75 4 17 18
86 31 155 30 158 43 225 54 275 5 22 21 103 35 180 14 77 30 154 36 171 5 17
9 54 9 84 0 123 -97 199 -235 183z m15 -220 c0 -8 -28 -155 -40 -208 -4 -22
-14 -67 -20 -100 -6 -33 -16 -78 -20 -100 -5 -22 -21 -103 -35 -180 -14 -77
-30 -156 -35 -175 -5 -19 -25 -120 -45 -225 -20 -104 -40 -208 -45 -230 -9
-45 -22 -110 -45 -235 -9 -47 -20 -101 -25 -120 -5 -19 -14 -62 -20 -95 -6
-33 -15 -78 -20 -100 -5 -22 -16 -78 -24 -125 -31 -161 -37 -195 -47 -231 -5
-20 -9 -47 -9 -60 0 -37 -36 -89 -61 -89 -20 0 -99 56 -324 230 -44 34 -111
85 -150 114 -114 87 -417 324 -462 362 -34 28 -40 38 -30 47 6 7 55 50 107 97
52 47 104 94 115 105 12 11 54 49 94 85 41 36 79 70 85 75 17 16 325 293 382
344 393 352 412 373 398 448 -9 48 -39 91 -73 105 -36 14 -96 12 -129 -5 -50
-25 -127 -70 -152 -87 -76 -53 -733 -470 -740 -470 -5 0 -10 -4 -12 -8 -1 -4
-46 -34 -98 -67 -52 -32 -193 -121 -312 -197 -120 -76 -224 -141 -231 -144
-13 -5 -569 176 -612 199 -16 8 -17 11 -5 15 8 2 29 10 45 17 17 7 113 46 215
85 102 39 199 77 215 85 17 7 113 45 215 84 102 40 196 77 210 83 14 6 35 15
48 19 38 15 65 26 130 53 35 14 68 26 73 26 5 0 28 8 52 19 23 10 62 26 87 36
108 42 122 47 170 67 19 8 51 21 70 28 42 14 64 23 110 43 19 8 125 50 235 92
110 42 209 81 220 85 11 5 90 37 175 70 85 33 164 65 175 70 35 15 180 69 188
70 4 0 7 -3 7 -7z m-1485 -1798 c21 -16 50 -40 64 -51 l25 -21 -39 -34 c-22
-19 -61 -54 -88 -78 -26 -24 -50 -41 -54 -37 -4 3 -1 46 5 95 7 48 12 104 12
123 0 57 7 57 75 3z"/>
</g>
</svg>
