<?xml version="1.0" standalone="no"?>
<!DOCTYPE svg PUBLIC "-//W3C//DTD SVG 20010904//EN"
 "http://www.w3.org/TR/2001/REC-SVG-20010904/DTD/svg10.dtd">
<svg version="1.0" xmlns="http://www.w3.org/2000/svg"
 width="840.000000pt" height="901.000000pt" viewBox="0 0 840.000000 901.000000"
 preserveAspectRatio="xMidYMid meet">

<g transform="translate(0.000000,901.000000) scale(0.100000,-0.100000)"
fill="#000000" stroke="none">
<path d="M3955 8604 c-579 -47 -1064 -182 -1550 -433 -618 -319 -1143 -795
-1528 -1388 -352 -540 -564 -1133 -647 -1803 -18 -142 -24 -632 -10 -808 71
-919 442 -1776 1069 -2468 575 -635 1361 -1073 2201 -1228 260 -48 405 -60
705 -60 473 -1 816 54 1250 199 994 332 1830 1066 2312 2030 176 350 312 767
377 1152 45 269 51 351 51 713 0 362 -6 444 -51 713 -198 1173 -911 2224
-1919 2826 -500 299 -1023 474 -1615 541 -97 11 -555 21 -645 14z m494 -224
c886 -61 1711 -430 2350 -1054 277 -271 477 -527 667 -857 263 -456 419 -934
496 -1519 17 -130 17 -740 0 -880 -88 -713 -331 -1339 -735 -1890 -435 -593
-1037 -1054 -1712 -1310 -161 -61 -240 -64 -310 -9 -62 50 -59 19 -66 759 -5
655 -6 678 -27 760 -42 161 -99 279 -181 371 l-39 45 146 23 c483 73 829 223
1079 464 129 125 211 237 288 392 150 306 212 630 202 1060 -4 172 -10 241
-26 317 -52 239 -157 460 -305 642 l-48 58 21 72 c77 262 65 586 -34 877 -13
40 -30 76 -37 80 -41 26 -223 1 -388 -54 -155 -51 -494 -230 -618 -328 -22
-17 -25 -17 -90 1 -245 67 -500 101 -812 107 -341 7 -639 -25 -927 -101 -89
-23 -94 -23 -115 -7 -98 76 -379 233 -518 291 -164 68 -397 116 -473 96 -29
-7 -43 -38 -81 -177 -71 -259 -74 -533 -10 -765 l26 -92 -65 -81 c-117 -149
-224 -364 -271 -548 -65 -252 -61 -702 10 -1018 76 -343 201 -582 413 -796
207 -208 446 -339 781 -428 113 -30 388 -81 436 -81 30 0 31 -11 2 -36 -38
-34 -116 -163 -147 -242 -16 -42 -37 -116 -46 -163 l-17 -85 -67 -26 c-138
-53 -195 -63 -366 -63 -149 0 -165 2 -235 28 -181 66 -318 192 -441 401 -44
76 -165 205 -246 263 -127 91 -291 138 -400 115 -65 -13 -93 -35 -93 -70 0
-39 43 -86 148 -161 183 -129 300 -286 402 -536 73 -179 140 -277 261 -380 83
-72 237 -148 364 -182 90 -23 118 -26 280 -26 128 -1 206 4 270 16 50 9 96 17
103 17 9 0 12 -77 12 -352 0 -322 -2 -357 -19 -394 -33 -72 -112 -112 -198
-100 -106 14 -491 183 -710 312 -143 83 -342 220 -468 320 -147 117 -469 440
-587 589 -434 546 -700 1151 -812 1845 -34 207 -46 371 -46 620 0 257 12 414
50 646 108 663 364 1245 792 1799 115 149 463 499 611 615 758 592 1651 873
2576 810z"/>
</g>
</svg>
