<?xml version="1.0" standalone="no"?>
<!DOCTYPE svg PUBLIC "-//W3C//DTD SVG 20010904//EN"
 "http://www.w3.org/TR/2001/REC-SVG-20010904/DTD/svg10.dtd">
<svg version="1.0" xmlns="http://www.w3.org/2000/svg"
 width="981.000000pt" height="982.000000pt" viewBox="0 0 981.000000 982.000000"
 preserveAspectRatio="xMidYMid meet">

<g transform="translate(0.000000,982.000000) scale(0.100000,-0.100000)"
fill="#000000" stroke="none">
<path d="M1815 9800 c-199 -7 -276 -20 -450 -76 -510 -164 -921 -514 -1164
-994 -72 -141 -118 -264 -165 -438 l-36 -133 0 -3252 0 -3252 34 -125 c94
-339 221 -591 418 -825 280 -333 614 -539 1076 -664 l112 -31 3263 0 3263 0
119 34 c388 111 661 261 912 500 273 259 457 578 568 983 l35 128 0 3253 0
3253 -39 143 c-142 513 -416 903 -838 1187 -166 112 -353 197 -603 273 l-135
41 -3090 1 c-1699 0 -3175 -2 -3280 -6z m5775 -380 c493 -9 553 -15 740 -75
496 -158 903 -588 1031 -1088 49 -194 49 -176 61 -1814 14 -1910 -1 -4539 -27
-4708 -31 -202 -86 -367 -180 -535 -240 -427 -644 -709 -1130 -786 -141 -22
-1200 -33 -3185 -33 -1980 0 -3044 11 -3185 33 -512 81 -943 398 -1171 863
-106 218 -142 380 -154 708 -15 396 -22 3551 -11 4805 11 1255 12 1277 60
1468 126 490 517 910 1003 1076 216 74 257 79 783 86 721 9 4851 10 5365 0z"/>
<path d="M2185 8230 c-132 -15 -349 -108 -472 -203 -163 -126 -274 -300 -320
-499 -22 -100 -22 -319 0 -410 88 -355 343 -609 704 -700 129 -33 380 -32 507
1 286 74 503 243 625 486 70 141 86 216 85 400 -1 144 -3 169 -28 250 -65 215
-196 401 -360 514 -74 51 -203 111 -283 132 -43 10 -138 24 -213 29 -147 11
-144 11 -245 0z m276 -390 c152 -28 222 -61 309 -148 207 -207 215 -532 18
-747 -161 -176 -514 -219 -752 -92 -86 46 -177 141 -222 233 -36 72 -38 82
-42 193 -5 135 6 197 49 288 69 144 205 235 414 277 95 19 96 19 226 -4z"/>
<path d="M1825 6281 c-312 -6 -321 -7 -357 -29 -20 -13 -49 -37 -63 -53 l-25
-31 0 -2347 0 -2347 43 -42 43 -42 861 -7 861 -6 66 58 67 58 -3 2326 c-3
2590 4 2359 -74 2414 -23 16 -61 34 -85 39 -54 11 -898 17 -1334 9z m1115
-2456 l0 -2065 -592 2 -593 3 -3 2050 c-1 1128 0 2056 3 2063 3 9 132 12 595
12 l590 0 0 -2065z"/>
<path d="M3650 6259 c-19 -12 -54 -39 -77 -62 l-43 -41 0 -2331 0 -2331 53
-52 53 -52 861 -7 861 -6 66 58 66 59 0 575 c0 701 18 2058 29 2198 7 90 13
112 45 179 64 128 180 224 307 253 96 23 277 3 359 -39 60 -31 142 -128 189
-226 l44 -89 9 -1425 9 -1425 62 -58 62 -58 865 5 864 6 44 42 43 43 -4 1495
c-4 1521 -6 1600 -43 1780 -50 239 -204 597 -341 790 -88 122 -282 317 -403
403 -163 116 -411 227 -625 281 -282 71 -727 67 -989 -9 -154 -45 -362 -137
-460 -204 -33 -23 -48 -28 -51 -19 -5 13 -35 155 -35 164 0 3 -25 32 -57 65
l-56 59 -836 0 c-830 0 -836 0 -871 -21z m1443 -614 l8 -240 42 -38 c79 -73
155 -93 223 -61 18 9 81 67 139 129 307 329 573 447 1015 448 239 0 429 -34
617 -113 417 -174 689 -512 838 -1041 48 -171 61 -567 68 -2091 l5 -878 -593
0 -592 0 -6 1238 c-4 680 -11 1284 -16 1342 -20 224 -131 438 -296 573 -69 57
-213 130 -300 152 -110 28 -243 38 -364 26 -201 -21 -333 -77 -462 -199 -142
-133 -205 -237 -280 -459 l-39 -117 0 -436 c0 -240 -3 -815 -7 -1278 l-6 -842
-584 0 -583 0 0 2058 c0 1132 3 2062 7 2065 3 4 266 6 582 5 l576 -3 8 -240z"/>
</g>
</svg>
