<?xml version="1.0" standalone="no"?>
<!DOCTYPE svg PUBLIC "-//W3C//DTD SVG 20010904//EN"
 "http://www.w3.org/TR/2001/REC-SVG-20010904/DTD/svg10.dtd">
<svg version="1.0" xmlns="http://www.w3.org/2000/svg"
 width="980.000000pt" height="984.000000pt" viewBox="0 0 980.000000 984.000000"
 preserveAspectRatio="xMidYMid meet">

<g transform="translate(0.000000,984.000000) scale(0.100000,-0.100000)"
fill="#000000" stroke="none">
<path d="M4552 9819 c-927 -67 -1821 -402 -2577 -966 -1428 -1065 -2167 -2822
-1930 -4588 164 -1220 781 -2330 1735 -3124 908 -756 2050 -1155 3225 -1128
350 8 640 43 967 116 1787 400 3226 1804 3676 3586 284 1123 166 2295 -337
3340 -340 706 -869 1346 -1496 1810 -761 564 -1640 889 -2585 955 -167 11
-512 11 -678 -1z m838 -433 c548 -67 1026 -209 1501 -447 427 -213 776 -461
1118 -794 811 -789 1278 -1794 1362 -2930 14 -196 6 -584 -16 -780 -63 -549
-205 -1033 -445 -1513 -230 -460 -492 -825 -850 -1182 -656 -655 -1484 -1087
-2388 -1244 -283 -50 -414 -60 -762 -61 -394 0 -586 18 -935 91 -1259 260
-2381 1094 -2999 2229 -292 534 -461 1071 -531 1680 -22 198 -30 574 -16 780
22 316 78 640 161 934 348 1226 1207 2252 2355 2811 527 256 1022 388 1665
444 113 10 652 -3 780 -18z"/>
<path d="M2105 7191 c-33 -9 -85 -30 -115 -46 -78 -42 -188 -155 -227 -236
-67 -135 -63 -10 -63 -1989 0 -1979 -4 -1854 63 -1989 41 -84 149 -195 232
-238 131 -68 -111 -63 2973 -63 1999 0 2806 3 2844 11 128 27 254 113 331 226
53 78 82 151 97 250 7 46 10 640 8 1848 l-3 1780 -27 81 c-64 189 -223 335
-406 373 -38 8 -844 11 -2850 10 -2617 0 -2801 -2 -2857 -18z m5453 -389 c-2
-7 -1483 -1365 -2143 -1966 -272 -248 -406 -314 -530 -261 -110 47 -199 119
-550 440 -126 116 -606 554 -1065 974 -459 420 -848 777 -865 792 l-30 29
2594 0 c1426 0 2591 -4 2589 -8z m-4589 -1145 c454 -411 826 -751 826 -756 0
-7 -1611 -1513 -1668 -1560 -16 -13 -17 85 -17 1539 0 1449 1 1552 17 1539 9
-8 388 -351 842 -762z m4871 -783 l0 -1555 -287 268 c-159 147 -539 502 -846
787 -307 286 -556 524 -554 530 4 12 1669 1524 1680 1525 4 1 7 -699 7 -1555z
m-3593 -415 c184 -167 231 -203 327 -249 137 -66 216 -83 396 -83 179 0 260
17 395 82 101 48 164 96 339 255 77 69 143 126 146 126 6 0 1587 -1445 1670
-1526 l35 -34 -2578 0 c-1417 0 -2577 3 -2576 8 1 14 1684 1551 1696 1549 6
-1 74 -58 150 -128z"/>
</g>
</svg>
