<?xml version="1.0" standalone="no"?>
<!DOCTYPE svg PUBLIC "-//W3C//DTD SVG 20010904//EN"
 "http://www.w3.org/TR/2001/REC-SVG-20010904/DTD/svg10.dtd">
<svg version="1.0" xmlns="http://www.w3.org/2000/svg"
 width="980.000000pt" height="980.000000pt" viewBox="0 0 980.000000 980.000000"
 preserveAspectRatio="xMidYMid meet">

<g transform="translate(0.000000,980.000000) scale(0.100000,-0.100000)"
fill="#000000" stroke="none">
<path d="M4560 9789 c-1035 -75 -1998 -463 -2800 -1128 -150 -123 -501 -475
-622 -621 -881 -1068 -1270 -2403 -1098 -3765 119 -934 501 -1801 1124 -2545
98 -117 370 -393 496 -504 1328 -1166 3158 -1531 4825 -962 895 305 1700 879
2281 1627 735 946 1100 2126 1024 3314 -70 1095 -490 2107 -1215 2935 -146
166 -427 434 -600 573 -754 604 -1611 958 -2575 1062 -174 19 -664 27 -840 14z
m625 -219 c926 -60 1787 -376 2520 -926 412 -309 780 -694 1064 -1114 651
-963 918 -2084 770 -3240 -100 -789 -410 -1548 -895 -2195 -142 -190 -242
-304 -434 -496 -388 -390 -760 -656 -1254 -900 -510 -252 -1035 -399 -1641
-461 -155 -15 -675 -15 -830 0 -617 63 -1148 214 -1675 478 -1130 566 -1975
1549 -2364 2750 -102 316 -170 649 -208 1019 -16 158 -16 676 0 835 80 792
327 1498 749 2144 705 1078 1844 1827 3113 2046 363 62 731 83 1085 60z"/>
<path d="M3455 7706 c-51 -22 -97 -68 -121 -121 l-24 -50 0 -2645 c0 -1770 3
-2657 10 -2682 19 -65 70 -130 129 -160 l54 -28 1413 2 1412 3 44 30 c56 40
104 112 117 178 8 37 11 822 9 2677 -3 2503 -4 2627 -21 2665 -23 50 -71 101
-119 126 -36 18 -78 19 -1455 19 -1147 -1 -1424 -3 -1448 -14z m2120 -296 l0
-35 -630 0 -630 0 -3 23 c-8 55 -44 52 635 50 l628 -3 0 -35z m591 -341 c19
-21 19 -69 19 -2066 l0 -2045 -24 -19 c-23 -18 -57 -19 -1244 -19 l-1221 0
-23 22 -23 21 0 2044 c0 2030 0 2043 20 2063 20 20 33 20 1248 20 l1229 0 19
-21z m-1151 -4348 c153 -70 189 -268 70 -386 -101 -101 -254 -94 -349 17 -105
122 -59 306 94 372 48 21 136 20 185 -3z"/>
</g>
</svg>
